solid columns
  facet normal 1.000000 0.000000 0.000000
    outer loop
      vertex -2080.000000 1500.000000 0.000000
      vertex -2080.000000 1600.000000 0.000000
      vertex -2080.000000 1500.000000 2580.000000
    endloop
  endfacet
  facet normal 1.000000 -0.000000 0.000000
    outer loop
      vertex -2080.000000 1500.000000 2580.000000
      vertex -2080.000000 1600.000000 0.000000
      vertex -2080.000000 1600.000000 2580.000000
    endloop
  endfacet
  facet normal 0.000000 -1.000000 0.000000
    outer loop
      vertex -2180.000000 1500.000000 0.000000
      vertex -2080.000000 1500.000000 0.000000
      vertex -2180.000000 1500.000000 2580.000000
    endloop
  endfacet
  facet normal 0.000000 -1.000000 0.000000
    outer loop
      vertex -2180.000000 1500.000000 2580.000000
      vertex -2080.000000 1500.000000 0.000000
      vertex -2080.000000 1500.000000 2580.000000
    endloop
  endfacet
  facet normal 1.000000 0.000000 0.000000
    outer loop
      vertex -2080.000000 -1600.000000 0.000000
      vertex -2080.000000 -1500.000000 0.000000
      vertex -2080.000000 -1600.000000 2580.000000
    endloop
  endfacet
  facet normal 1.000000 -0.000000 0.000000
    outer loop
      vertex -2080.000000 -1600.000000 2580.000000
      vertex -2080.000000 -1500.000000 0.000000
      vertex -2080.000000 -1500.000000 2580.000000
    endloop
  endfacet
  facet normal 0.000000 -1.000000 0.000000
    outer loop
      vertex -2180.000000 -1600.000000 0.000000
      vertex -2080.000000 -1600.000000 0.000000
      vertex -2180.000000 -1600.000000 2580.000000
    endloop
  endfacet
  facet normal 0.000000 -1.000000 0.000000
    outer loop
      vertex -2180.000000 -1600.000000 2580.000000
      vertex -2080.000000 -1600.000000 0.000000
      vertex -2080.000000 -1600.000000 2580.000000
    endloop
  endfacet
  facet normal 0.000000 -1.000000 0.000000
    outer loop
      vertex 2080.000000 -1600.000000 0.000000
      vertex 2180.000000 -1600.000000 0.000000
      vertex 2080.000000 -1600.000000 2580.000000
    endloop
  endfacet
  facet normal 0.000000 -1.000000 0.000000
    outer loop
      vertex 2080.000000 -1600.000000 2580.000000
      vertex 2180.000000 -1600.000000 0.000000
      vertex 2180.000000 -1600.000000 2580.000000
    endloop
  endfacet
  facet normal 1.000000 0.000000 0.000000
    outer loop
      vertex 2180.000000 -1600.000000 0.000000
      vertex 2180.000000 -1500.000000 0.000000
      vertex 2180.000000 -1600.000000 2580.000000
    endloop
  endfacet
  facet normal 1.000000 -0.000000 0.000000
    outer loop
      vertex 2180.000000 -1600.000000 2580.000000
      vertex 2180.000000 -1500.000000 0.000000
      vertex 2180.000000 -1500.000000 2580.000000
    endloop
  endfacet
  facet normal 1.000000 0.000000 0.000000
    outer loop
      vertex 2180.000000 1500.000000 0.000000
      vertex 2180.000000 1600.000000 0.000000
      vertex 2180.000000 1500.000000 2580.000000
    endloop
  endfacet
  facet normal 1.000000 -0.000000 0.000000
    outer loop
      vertex 2180.000000 1500.000000 2580.000000
      vertex 2180.000000 1600.000000 0.000000
      vertex 2180.000000 1600.000000 2580.000000
    endloop
  endfacet
  facet normal 0.000000 -1.000000 0.000000
    outer loop
      vertex 2080.000000 1500.000000 0.000000
      vertex 2180.000000 1500.000000 0.000000
      vertex 2080.000000 1500.000000 2580.000000
    endloop
  endfacet
  facet normal 0.000000 -1.000000 0.000000
    outer loop
      vertex 2080.000000 1500.000000 2580.000000
      vertex 2180.000000 1500.000000 0.000000
      vertex 2180.000000 1500.000000 2580.000000
    endloop
  endfacet
  facet normal -1.000000 0.000000 0.000000
    outer loop
      vertex 2080.000000 -1500.000000 0.000000
      vertex 2080.000000 -1600.000000 0.000000
      vertex 2080.000000 -1500.000000 2580.000000
    endloop
  endfacet
  facet normal -1.000000 -0.000000 0.000000
    outer loop
      vertex 2080.000000 -1500.000000 2580.000000
      vertex 2080.000000 -1600.000000 0.000000
      vertex 2080.000000 -1600.000000 2580.000000
    endloop
  endfacet
  facet normal -1.000000 0.000000 0.000000
    outer loop
      vertex 2080.000000 1600.000000 0.000000
      vertex 2080.000000 1500.000000 0.000000
      vertex 2080.000000 1600.000000 2580.000000
    endloop
  endfacet
  facet normal -1.000000 -0.000000 0.000000
    outer loop
      vertex 2080.000000 1600.000000 2580.000000
      vertex 2080.000000 1500.000000 0.000000
      vertex 2080.000000 1500.000000 2580.000000
    endloop
  endfacet
  facet normal -1.000000 0.000000 0.000000
    outer loop
      vertex -2180.000000 -1500.000000 0.000000
      vertex -2180.000000 -1600.000000 0.000000
      vertex -2180.000000 -1500.000000 2580.000000
    endloop
  endfacet
  facet normal -1.000000 -0.000000 0.000000
    outer loop
      vertex -2180.000000 -1500.000000 2580.000000
      vertex -2180.000000 -1600.000000 0.000000
      vertex -2180.000000 -1600.000000 2580.000000
    endloop
  endfacet
  facet normal -1.000000 0.000000 0.000000
    outer loop
      vertex -2180.000000 1600.000000 0.000000
      vertex -2180.000000 1500.000000 0.000000
      vertex -2180.000000 1600.000000 2580.000000
    endloop
  endfacet
  facet normal -1.000000 -0.000000 0.000000
    outer loop
      vertex -2180.000000 1600.000000 2580.000000
      vertex -2180.000000 1500.000000 0.000000
      vertex -2180.000000 1500.000000 2580.000000
    endloop
  endfacet
  facet normal 0.000000 1.000000 -0.000000
    outer loop
      vertex 2180.000000 -1500.000000 0.000000
      vertex 2080.000000 -1500.000000 0.000000
      vertex 2180.000000 -1500.000000 2580.000000
    endloop
  endfacet
  facet normal 0.000000 1.000000 0.000000
    outer loop
      vertex 2180.000000 -1500.000000 2580.000000
      vertex 2080.000000 -1500.000000 0.000000
      vertex 2080.000000 -1500.000000 2580.000000
    endloop
  endfacet
  facet normal 0.000000 1.000000 -0.000000
    outer loop
      vertex 2180.000000 1600.000000 0.000000
      vertex 2080.000000 1600.000000 0.000000
      vertex 2180.000000 1600.000000 2580.000000
    endloop
  endfacet
  facet normal 0.000000 1.000000 0.000000
    outer loop
      vertex 2180.000000 1600.000000 2580.000000
      vertex 2080.000000 1600.000000 0.000000
      vertex 2080.000000 1600.000000 2580.000000
    endloop
  endfacet
  facet normal 0.000000 1.000000 -0.000000
    outer loop
      vertex -2080.000000 1600.000000 0.000000
      vertex -2180.000000 1600.000000 0.000000
      vertex -2080.000000 1600.000000 2580.000000
    endloop
  endfacet
  facet normal 0.000000 1.000000 0.000000
    outer loop
      vertex -2080.000000 1600.000000 2580.000000
      vertex -2180.000000 1600.000000 0.000000
      vertex -2180.000000 1600.000000 2580.000000
    endloop
  endfacet
  facet normal 0.000000 1.000000 -0.000000
    outer loop
      vertex -2080.000000 -1500.000000 0.000000
      vertex -2180.000000 -1500.000000 0.000000
      vertex -2080.000000 -1500.000000 2580.000000
    endloop
  endfacet
  facet normal 0.000000 1.000000 0.000000
    outer loop
      vertex -2080.000000 -1500.000000 2580.000000
      vertex -2180.000000 -1500.000000 0.000000
      vertex -2180.000000 -1500.000000 2580.000000
    endloop
  endfacet
endsolid columns
