solid wallwindow
facet normal -1.000000 0.000000 0.000000
outer loop
vertex -2280.000000 1700.000000 2580.000000
vertex -2280.000000 1000.000000 800.000000
vertex -2280.000000 1000.000000 2425.000000
endloop
endfacet
facet normal -1.000000 0.000000 0.000000
outer loop
vertex -2280.000000 1700.000000 2580.000000
vertex -2280.000000 1700.000000 0.000000
vertex -2280.000000 1000.000000 800.000000
endloop
endfacet
facet normal -1.000000 0.000000 0.000000
outer loop
vertex -2280.000000 -1000.000000 2425.000000
vertex -2280.000000 -1700.000000 2580.000000
vertex -2280.000000 1000.000000 2425.000000
endloop
endfacet
facet normal -1.000000 0.000000 0.000000
outer loop
vertex -2280.000000 1000.000000 2425.000000
vertex -2280.000000 -1700.000000 2580.000000
vertex -2280.000000 1700.000000 2580.000000
endloop
endfacet
facet normal -1.000000 0.000000 0.000000
outer loop
vertex -2280.000000 -1000.000000 2425.000000
vertex -2280.000000 -1000.000000 800.000000
vertex -2280.000000 -1700.000000 2580.000000
endloop
endfacet
facet normal -1.000000 0.000000 0.000000
outer loop
vertex -2280.000000 1700.000000 0.000000
vertex -2280.000000 -1000.000000 800.000000
vertex -2280.000000 1000.000000 800.000000
endloop
endfacet
facet normal -1.000000 0.000000 0.000000
outer loop
vertex -2280.000000 1700.000000 0.000000
vertex -2280.000000 -1700.000000 0.000000
vertex -2280.000000 -1000.000000 800.000000
endloop
endfacet
facet normal -1.000000 0.000000 0.000000
outer loop
vertex -2280.000000 -1000.000000 800.000000
vertex -2280.000000 -1700.000000 0.000000
vertex -2280.000000 -1700.000000 2580.000000
endloop
endfacet
endsolid wallwindow
