solid floor
facet normal 0.000000 0.000000 -1.000000
outer loop
vertex -2280.000000 1700.000000 0.000000
vertex -1000.000000 1000.000000 0.000000
vertex -2280.000000 -1700.000000 0.000000
endloop
endfacet
facet normal 0.000000 0.000000 -1.000000
outer loop
vertex -2280.000000 -1700.000000 0.000000
vertex -1000.000000 1000.000000 0.000000
vertex -1000.000000 -1000.000000 0.000000
endloop
endfacet
facet normal 0.000000 0.000000 -1.000000
outer loop
vertex -1000.000000 -1000.000000 0.000000
vertex 1000.000000 -1000.000000 0.000000
vertex -2280.000000 -1700.000000 0.000000
endloop
endfacet
facet normal 0.000000 0.000000 -1.000000
outer loop
vertex 1000.000000 -1000.000000 0.000000
vertex 2280.000000 -1700.000000 0.000000
vertex -2280.000000 -1700.000000 0.000000
endloop
endfacet
facet normal 0.000000 0.000000 -1.000000
outer loop
vertex 1000.000000 1000.000000 0.000000
vertex 2275.000000 390.000000 0.000000
vertex 1000.000000 -1000.000000 0.000000
endloop
endfacet
facet normal 0.000000 0.000000 -1.000000
outer loop
vertex 1000.000000 -1000.000000 0.000000
vertex 2275.000000 390.000000 0.000000
vertex 2280.000000 -1700.000000 0.000000
endloop
endfacet
facet normal 0.000000 0.000000 -1.000000
outer loop
vertex 2275.000000 390.000000 0.000000
vertex 2280.000000 390.000000 0.000000
vertex 2280.000000 -1700.000000 0.000000
endloop
endfacet
facet normal 0.000000 0.000000 -1.000000
outer loop
vertex 1000.000000 1000.000000 0.000000
vertex 2275.000000 1325.000000 0.000000
vertex 2275.000000 390.000000 0.000000
endloop
endfacet
facet normal 0.000000 -0.000000 -1.000000
outer loop
vertex 2275.000000 1325.000000 0.000000
vertex 2280.000000 1700.000000 0.000000
vertex 2280.000000 1325.000000 0.000000
endloop
endfacet
facet normal 0.000000 -0.000000 -1.000000
outer loop
vertex 1000.000000 1000.000000 0.000000
vertex 2280.000000 1700.000000 0.000000
vertex 2275.000000 1325.000000 0.000000
endloop
endfacet
facet normal 0.000000 0.000000 -1.000000
outer loop
vertex -2280.000000 1700.000000 0.000000
vertex 2280.000000 1700.000000 0.000000
vertex -1000.000000 1000.000000 0.000000
endloop
endfacet
facet normal 0.000000 0.000000 -1.000000
outer loop
vertex -1000.000000 1000.000000 0.000000
vertex 2280.000000 1700.000000 0.000000
vertex 1000.000000 1000.000000 0.000000
endloop
endfacet
endsolid floor
