solid ceiling
facet normal 0.000000 0.000000 1.000000
outer loop
vertex 1.000000 1.000000 1.000000
vertex -1.000000 1.000000 1.000000
vertex -1.000000 -1.000000 1.000000
endloop
endfacet
facet normal 0.000000 0.000000 1.000000
outer loop
vertex 1.000000 1.000000 1.000000
vertex -1.000000 -1.000000 1.000000
vertex 1.000000 -1.000000 1.000000
endloop
endfacet
facet normal 0.000000 -1.000000 0.000000
outer loop
vertex 1.000000 -1.000000 -1.000000
vertex 1.000000 -1.000000 1.000000
vertex -1.000000 -1.000000 1.000000
endloop
endfacet
facet normal 0.000000 -1.000000 0.000000
outer loop
vertex 1.000000 -1.000000 -1.000000
vertex -1.000000 -1.000000 1.000000
vertex -1.000000 -1.000000 -1.000000
endloop
endfacet
facet normal -1.000000 0.000000 0.000000
outer loop
vertex -1.000000 -1.000000 -1.000000
vertex -1.000000 -1.000000 1.000000
vertex -1.000000 1.000000 1.000000
endloop
endfacet
facet normal -1.000000 0.000000 0.000000
outer loop
vertex -1.000000 -1.000000 -1.000000
vertex -1.000000 1.000000 1.000000
vertex -1.000000 1.000000 -1.000000
endloop
endfacet
facet normal 0.000000 0.000000 -1.000000
outer loop
vertex -1.000000 1.000000 -1.000000
vertex 1.000000 1.000000 -1.000000
vertex 1.000000 -1.000000 -1.000000
endloop
endfacet
facet normal 0.000000 0.000000 -1.000000
outer loop
vertex -1.000000 1.000000 -1.000000
vertex 1.000000 -1.000000 -1.000000
vertex -1.000000 -1.000000 -1.000000
endloop
endfacet
facet normal 1.000000 0.000000 0.000000
outer loop
vertex 1.000000 1.000000 -1.000000
vertex 1.000000 1.000000 1.000000
vertex 1.000000 -1.000000 1.000000
endloop
endfacet
facet normal 1.000000 0.000000 0.000000
outer loop
vertex 1.000000 1.000000 -1.000000
vertex 1.000000 -1.000000 1.000000
vertex 1.000000 -1.000000 -1.000000
endloop
endfacet
facet normal 0.000000 1.000000 0.000000
outer loop
vertex -1.000000 1.000000 -1.000000
vertex -1.000000 1.000000 1.000000
vertex 1.000000 1.000000 1.000000
endloop
endfacet
facet normal 0.000000 1.000000 0.000000
outer loop
vertex -1.000000 1.000000 -1.000000
vertex 1.000000 1.000000 1.000000
vertex 1.000000 1.000000 -1.000000
endloop
endfacet
facet normal 0.000000 0.000000 1.000000
outer loop
vertex -1355.000000 -1200.000000 2580.000000
vertex -1605.000000 -1200.000000 2580.000000
vertex -2280.000000 -1700.000000 2580.000000
endloop
endfacet
facet normal 0.000000 0.000000 1.000000
outer loop
vertex -1605.000000 -950.000000 2580.000000
vertex -2280.000000 -1700.000000 2580.000000
vertex -1605.000000 -1200.000000 2580.000000
endloop
endfacet
facet normal 0.000000 0.000000 1.000000
outer loop
vertex -1605.000000 950.000000 2580.000000
vertex -1605.000000 -950.000000 2580.000000
vertex -1355.000000 -950.000000 2580.000000
endloop
endfacet
facet normal 0.000000 0.000000 1.000000
outer loop
vertex -2280.000000 1700.000000 2580.000000
vertex -1605.000000 -950.000000 2580.000000
vertex -1605.000000 950.000000 2580.000000
endloop
endfacet
facet normal 0.000000 0.000000 1.000000
outer loop
vertex -2280.000000 1700.000000 2580.000000
vertex -2280.000000 -1700.000000 2580.000000
vertex -1605.000000 -950.000000 2580.000000
endloop
endfacet
facet normal 0.000000 0.000000 1.000000
outer loop
vertex -1605.000000 1200.000000 2580.000000
vertex -2280.000000 1700.000000 2580.000000
vertex -1605.000000 950.000000 2580.000000
endloop
endfacet
facet normal 0.000000 0.000000 1.000000
outer loop
vertex -1355.000000 950.000000 2580.000000
vertex -1605.000000 950.000000 2580.000000
vertex -1355.000000 -950.000000 2580.000000
endloop
endfacet
facet normal 0.000000 0.000000 1.000000
outer loop
vertex -1355.000000 1200.000000 2580.000000
vertex -2280.000000 1700.000000 2580.000000
vertex -1605.000000 1200.000000 2580.000000
endloop
endfacet
facet normal 0.000000 0.000000 1.000000
outer loop
vertex 2280.000000 -1700.000000 2580.000000
vertex -1355.000000 -1200.000000 2580.000000
vertex -2280.000000 -1700.000000 2580.000000
endloop
endfacet
facet normal 0.000000 0.000000 1.000000
outer loop
vertex 1180.000000 -0.000000 2580.000000
vertex -1355.000000 -950.000000 2580.000000
vertex -1355.000000 -1200.000000 2580.000000
endloop
endfacet
facet normal 0.000000 0.000000 1.000000
outer loop
vertex 1180.000000 -0.000000 2580.000000
vertex -1355.000000 -1200.000000 2580.000000
vertex 2280.000000 -1700.000000 2580.000000
endloop
endfacet
facet normal 0.000000 0.000000 1.000000
outer loop
vertex 1180.000000 -0.000000 2580.000000
vertex -1355.000000 950.000000 2580.000000
vertex -1355.000000 -950.000000 2580.000000
endloop
endfacet
facet normal 0.000000 0.000000 1.000000
outer loop
vertex 1180.000000 600.000000 2580.000000
vertex -1355.000000 1200.000000 2580.000000
vertex -1355.000000 950.000000 2580.000000
endloop
endfacet
facet normal 0.000000 0.000000 1.000000
outer loop
vertex 1180.000000 600.000000 2580.000000
vertex -1355.000000 950.000000 2580.000000
vertex 1180.000000 -0.000000 2580.000000
endloop
endfacet
facet normal 0.000000 0.000000 1.000000
outer loop
vertex 1780.000000 -0.000000 2580.000000
vertex 1180.000000 -0.000000 2580.000000
vertex 2280.000000 -1700.000000 2580.000000
endloop
endfacet
facet normal 0.000000 0.000000 1.000000
outer loop
vertex 2280.000000 1700.000000 2580.000000
vertex 1180.000000 600.000000 2580.000000
vertex 1780.000000 600.000000 2580.000000
endloop
endfacet
facet normal 0.000000 0.000000 1.000000
outer loop
vertex 2280.000000 1700.000000 2580.000000
vertex 1780.000000 600.000000 2580.000000
vertex 1780.000000 -0.000000 2580.000000
endloop
endfacet
facet normal 0.000000 0.000000 1.000000
outer loop
vertex 2280.000000 1700.000000 2580.000000
vertex -1355.000000 1200.000000 2580.000000
vertex 1180.000000 600.000000 2580.000000
endloop
endfacet
facet normal 0.000000 0.000000 1.000000
outer loop
vertex 2280.000000 1700.000000 2580.000000
vertex 1780.000000 -0.000000 2580.000000
vertex 2280.000000 -1700.000000 2580.000000
endloop
endfacet
facet normal 0.000000 0.000000 1.000000
outer loop
vertex 2280.000000 1700.000000 2580.000000
vertex -2280.000000 1700.000000 2580.000000
vertex -1355.000000 1200.000000 2580.000000
endloop
endfacet
endsolid ceiling
